# xmcd
#
# Track frame offsets: 
#        150
#        14189
#        24719
#        35598
#        49619
#        63405
#        77358
#        90905
#        102452
#        115223
#        127930
#        140611
#        153853
#        166113
#        176641
#        188507
#        200499
#        216967
#        227523
#        244679
#        258567
#        273464
#        286900
#        310114
#
# Disc length: 4480 seconds
#
# Revision: 0
# Processed by: cddbd v1.5.2PL0 Copyright (c) Steve Scherf et al.
# Submitted via: ExactAudioCopy v0.95b4
#
DISCID=46117e18
DTITLE=Otis Rush - The Essential
DYEAR=1900
DGENRE=Blues
TTITLE0=I Can't Quit You Baby
TTITLE1=Sit Down Baby
TTITLE2=Violent Love
TTITLE3=My Love Will Never Die
TTITLE4=Groaning The Blues
TTITLE5=If You Were Mine
TTITLE6=Love That Woman
TTITLE7=Jump Sister Bessie
TTITLE8=Three Times A Fool
TTITLE9=She's A Good 'Un
TTITLE10=It Takes Time
TTITLE11=Checking On My Baby
TTITLE12=Double Trouble
TTITLE13=Keep On Loving Me Baby
TTITLE14=All Your Love (I Miss Loving)
TTITLE15=My Baby Is A Good 'Un
TTITLE16=I Can't Quit You Baby (Take 3)
TTITLE17=Sit Down Baby
TTITLE18=Groaning The Blues (Take 3)
TTITLE19=My Love Will Never Die (Take Unknown)
TTITLE20=She's A Good 'Un (Take 4)
TTITLE21=Three Times A Fool (Take Unknown)
TTITLE22=Double Trouble (Take 3)
TTITLE23=Sit Down Baby (Take Unknown)
EXTD=
EXTT0=
EXTT1=
EXTT2=
EXTT3=
EXTT4=
EXTT5=
EXTT6=
EXTT7=
EXTT8=
EXTT9=
EXTT10=
EXTT11=
EXTT12=
EXTT13=
EXTT14=
EXTT15=
EXTT16=
EXTT17=
EXTT18=
EXTT19=
EXTT20=
EXTT21=
EXTT22=
EXTT23=
PLAYORDER=
